<svg xmlns="http://www.w3.org/2000/svg" viewBox="0 0 512 512"><circle cx="238.0" cy="196.0" r="6.5" fill="rgb(124,92,224)" fill-opacity="0.92"/><circle cx="238.0" cy="314.0" r="9.0" fill="rgb(140,109,231)" fill-opacity="0.92"/><circle cx="228.0" cy="202.9" r="6.7" fill="rgb(157,126,239)" fill-opacity="0.92"/><circle cx="228.0" cy="319.2" r="8.6" fill="rgb(128,97,226)" fill-opacity="0.92"/><circle cx="218.0" cy="209.8" r="7.1" fill="rgb(145,114,234)" fill-opacity="0.92"/><circle cx="218.0" cy="324.4" r="8.1" fill="rgb(162,131,241)" fill-opacity="0.92"/><circle cx="208.0" cy="216.5" r="7.7" fill="rgb(133,102,228)" fill-opacity="0.92"/><circle cx="208.0" cy="329.4" r="7.5" fill="rgb(150,119,236)" fill-opacity="0.92"/><circle cx="198.0" cy="222.9" r="8.3" fill="rgb(167,137,244)" fill-opacity="0.92"/><circle cx="198.0" cy="334.1" r="6.9" fill="rgb(138,107,230)" fill-opacity="0.92"/><circle cx="188.0" cy="229.1" r="8.8" fill="rgb(155,124,238)" fill-opacity="0.92"/><circle cx="188.0" cy="338.6" r="6.6" fill="rgb(127,95,225)" fill-opacity="0.92"/><circle cx="178.0" cy="234.8" r="9.0" fill="rgb(143,112,233)" fill-opacity="0.92"/><circle cx="178.0" cy="342.7" r="6.5" fill="rgb(160,130,241)" fill-opacity="0.92"/><circle cx="168.0" cy="240.1" r="8.9" fill="rgb(132,100,227)" fill-opacity="0.92"/><circle cx="168.0" cy="346.3" r="6.8" fill="rgb(148,117,235)" fill-opacity="0.92"/><circle cx="158.0" cy="244.9" r="8.4" fill="rgb(165,135,243)" fill-opacity="0.92"/><circle cx="158.0" cy="349.4" r="7.4" fill="rgb(137,105,230)" fill-opacity="0.92"/><circle cx="148.0" cy="249.2" r="7.8" fill="rgb(153,123,237)" fill-opacity="0.92"/><circle cx="148.0" cy="352.0" r="8.0" fill="rgb(125,93,224)" fill-opacity="0.92"/><circle cx="138.0" cy="252.9" r="7.2" fill="rgb(142,110,232)" fill-opacity="0.92"/><circle cx="138.0" cy="353.9" r="8.6" fill="rgb(158,128,240)" fill-opacity="0.92"/><circle cx="128.0" cy="255.9" r="6.7" fill="rgb(130,98,226)" fill-opacity="0.92"/><circle cx="128.0" cy="355.3" r="8.9" fill="rgb(146,115,234)" fill-opacity="0.92"/><circle cx="118.0" cy="258.3" r="6.5" fill="rgb(163,133,242)" fill-opacity="0.92"/><circle cx="118.0" cy="356.0" r="9.0" fill="rgb(135,103,229)" fill-opacity="0.92"/><circle cx="108.0" cy="260.0" r="6.6" fill="rgb(151,121,237)" fill-opacity="0.92"/><circle cx="108.0" cy="356.0" r="8.7" fill="rgb(168,138,244)" fill-opacity="0.92"/><circle cx="274.0" cy="196.0" r="7.0" fill="rgb(140,108,231)" fill-opacity="0.92"/><circle cx="274.0" cy="314.0" r="8.2" fill="rgb(156,126,239)" fill-opacity="0.92"/><circle cx="284.0" cy="202.9" r="7.6" fill="rgb(128,96,226)" fill-opacity="0.92"/><circle cx="284.0" cy="319.2" r="7.6" fill="rgb(145,114,233)" fill-opacity="0.92"/><circle cx="294.0" cy="209.8" r="8.3" fill="rgb(161,131,241)" fill-opacity="0.92"/><circle cx="294.0" cy="324.4" r="7.0" fill="rgb(133,101,228)" fill-opacity="0.92"/><circle cx="304.0" cy="216.5" r="8.8" fill="rgb(150,119,236)" fill-opacity="0.92"/><circle cx="304.0" cy="329.4" r="6.6" fill="rgb(166,136,243)" fill-opacity="0.92"/><circle cx="314.0" cy="222.9" r="9.0" fill="rgb(138,107,230)" fill-opacity="0.92"/><circle cx="314.0" cy="334.1" r="6.5" fill="rgb(155,124,238)" fill-opacity="0.92"/><circle cx="324.0" cy="229.1" r="8.9" fill="rgb(126,94,225)" fill-opacity="0.92"/><circle cx="324.0" cy="338.6" r="6.8" fill="rgb(143,112,233)" fill-opacity="0.92"/><circle cx="334.0" cy="234.8" r="8.5" fill="rgb(160,129,240)" fill-opacity="0.92"/><circle cx="334.0" cy="342.7" r="7.3" fill="rgb(131,99,227)" fill-opacity="0.92"/><circle cx="344.0" cy="240.1" r="7.9" fill="rgb(148,117,235)" fill-opacity="0.92"/><circle cx="344.0" cy="346.3" r="7.9" fill="rgb(164,134,243)" fill-opacity="0.92"/><circle cx="354.0" cy="244.9" r="7.3" fill="rgb(136,105,229)" fill-opacity="0.92"/><circle cx="354.0" cy="349.4" r="8.5" fill="rgb(153,122,237)" fill-opacity="0.92"/><circle cx="364.0" cy="249.2" r="6.8" fill="rgb(124,92,224)" fill-opacity="0.92"/><circle cx="364.0" cy="352.0" r="8.9" fill="rgb(141,110,232)" fill-opacity="0.92"/><circle cx="374.0" cy="252.9" r="6.5" fill="rgb(158,127,239)" fill-opacity="0.92"/><circle cx="374.0" cy="353.9" r="9.0" fill="rgb(129,98,226)" fill-opacity="0.92"/><circle cx="384.0" cy="255.9" r="6.6" fill="rgb(146,115,234)" fill-opacity="0.92"/><circle cx="384.0" cy="355.3" r="8.8" fill="rgb(163,132,242)" fill-opacity="0.92"/><circle cx="394.0" cy="258.3" r="6.9" fill="rgb(134,103,229)" fill-opacity="0.92"/><circle cx="394.0" cy="356.0" r="8.3" fill="rgb(151,120,236)" fill-opacity="0.92"/><circle cx="404.0" cy="260.0" r="7.5" fill="rgb(168,138,244)" fill-opacity="0.92"/><circle cx="404.0" cy="356.0" r="7.7" fill="rgb(139,108,231)" fill-opacity="0.92"/><circle cx="256.0" cy="190.0" r="8.2" fill="rgb(156,125,239)" fill-opacity="0.92"/><circle cx="256.0" cy="208.3" r="7.1" fill="rgb(128,96,225)" fill-opacity="0.92"/><circle cx="256.0" cy="226.6" r="8.7" fill="rgb(144,113,233)" fill-opacity="0.92"/><circle cx="256.0" cy="244.9" r="6.6" fill="rgb(161,131,241)" fill-opacity="0.92"/><circle cx="256.0" cy="263.1" r="9.0" fill="rgb(132,101,228)" fill-opacity="0.92"/><circle cx="256.0" cy="281.4" r="6.5" fill="rgb(149,118,235)" fill-opacity="0.92"/><circle cx="256.0" cy="299.7" r="8.9" fill="rgb(166,136,243)" fill-opacity="0.92"/><circle cx="256.0" cy="318.0" r="6.7" fill="rgb(137,106,230)" fill-opacity="0.92"/></svg>